<svg width="20" height="18" viewBox="0 0 20 18" fill="none" xmlns="http://www.w3.org/2000/svg">
<path d="M14.6737 17.5567C14.4365 17.5569 14.2028 17.4989 13.9931 17.3879L10.0975 15.3404C10.0673 15.3243 10.0336 15.3159 9.99936 15.3159C9.96513 15.3159 9.93142 15.3243 9.90123 15.3404L6.00623 17.3879C5.76486 17.515 5.49276 17.5719 5.22072 17.5523C4.94867 17.5327 4.68755 17.4373 4.46688 17.277C4.24622 17.1167 4.07483 16.8978 3.9721 16.6452C3.86937 16.3925 3.83941 16.1161 3.88561 15.8473L4.62936 11.5104C4.63507 11.4765 4.63236 11.4416 4.62147 11.4089C4.61057 11.3762 4.59182 11.3467 4.56686 11.3229L1.41811 8.24982C1.22261 8.05935 1.08436 7.81794 1.01904 7.55293C0.953707 7.28792 0.963907 7.00991 1.04848 6.7504C1.13305 6.49089 1.28862 6.26026 1.49755 6.08463C1.70648 5.909 1.96042 5.7954 2.23061 5.7567L6.58248 5.12482C6.61635 5.1199 6.6485 5.10679 6.67616 5.08665C6.70382 5.0665 6.72616 5.03992 6.74123 5.0092L8.68686 1.06232C8.80737 0.817648 8.99398 0.611603 9.22556 0.467519C9.45713 0.323436 9.72443 0.24707 9.99717 0.24707C10.2699 0.24707 10.5372 0.323436 10.7688 0.467519C11.0004 0.611603 11.187 0.817648 11.3075 1.06232L13.2544 5.00795C13.2696 5.03857 13.2919 5.06507 13.3196 5.0852C13.3472 5.10533 13.3793 5.11849 13.4131 5.12357L17.7687 5.75607C18.0388 5.795 18.2926 5.90872 18.5013 6.08437C18.7101 6.26003 18.8656 6.49061 18.9501 6.75002C19.0347 7.00944 19.0449 7.28734 18.9797 7.55228C18.9145 7.81722 18.7765 8.05863 18.5812 8.2492L15.4294 11.3204C15.4045 11.3443 15.3858 11.3738 15.3749 11.4065C15.364 11.4391 15.3613 11.474 15.3669 11.5079L16.1106 15.8448C16.1464 16.0544 16.1361 16.2692 16.0804 16.4744C16.0247 16.6795 15.925 16.8701 15.7882 17.0328C15.6513 17.1955 15.4807 17.3264 15.2881 17.4165C15.0956 17.5065 14.8857 17.5535 14.6731 17.5542L14.6737 17.5567ZM9.99936 14.0654C10.2364 14.0654 10.4698 14.1233 10.6794 14.2342L14.5744 16.2811C14.6088 16.3008 14.6484 16.3098 14.688 16.307C14.7276 16.3042 14.7655 16.2898 14.7969 16.2654C14.8296 16.243 14.855 16.2114 14.87 16.1747C14.885 16.1379 14.8889 16.0975 14.8812 16.0586L14.1369 11.7211C14.0971 11.4876 14.1145 11.248 14.1877 11.0228C14.2608 10.7976 14.3875 10.5935 14.5569 10.4279L17.7087 7.35607C17.7369 7.32852 17.7567 7.29365 17.7661 7.25539C17.7755 7.21714 17.774 7.17703 17.7618 7.13959C17.7495 7.10215 17.7271 7.06887 17.697 7.04351C17.6668 7.01815 17.6302 7.00172 17.5912 6.99607L13.2362 6.36295C13.0018 6.329 12.7791 6.23848 12.5874 6.0992C12.3958 5.95993 12.2409 5.77609 12.1362 5.56357L10.1869 1.61732C10.1694 1.58201 10.1424 1.55228 10.109 1.53149C10.0755 1.5107 10.0369 1.49969 9.99748 1.49969C9.95809 1.49969 9.91948 1.5107 9.88602 1.53149C9.85255 1.55228 9.82557 1.58201 9.80811 1.61732L7.86248 5.56232C7.75773 5.77492 7.60277 5.95881 7.411 6.09809C7.21924 6.23737 6.99644 6.32784 6.76186 6.3617L2.40748 6.99607C2.36843 7.0016 2.33171 7.01798 2.3015 7.04335C2.2713 7.06872 2.24883 7.10207 2.23665 7.13958C2.22447 7.1771 2.22307 7.21728 2.23261 7.25556C2.24215 7.29383 2.26225 7.32866 2.29061 7.35607L5.44186 10.4279C5.6112 10.5935 5.73788 10.7976 5.81103 11.0228C5.88418 11.248 5.90162 11.4876 5.86186 11.7211L5.11748 16.0586C5.11073 16.0975 5.11505 16.1376 5.12996 16.1743C5.14486 16.2109 5.16975 16.2426 5.20179 16.2658C5.23384 16.289 5.27174 16.3027 5.3112 16.3054C5.35066 16.3081 5.39008 16.2997 5.42498 16.2811L9.31936 14.2336C9.52901 14.1232 9.7624 14.0655 9.99936 14.0654Z" fill="#334155"/>
</svg>
